<svg xmlns="http://www.w3.org/2000/svg" xmlns:xlink="http://www.w3.org/1999/xlink" width="1366" zoomAndPan="magnify" viewBox="0 0 1024.5 200.249992" height="768" preserveAspectRatio="xMidYMid meet" version="1.0"><defs><clipPath id="4efb8b19c2"><path d="M 760 14.742188 L 766 14.742188 L 766 17 L 760 17 Z M 760 14.742188 " clip-rule="nonzero"/></clipPath><clipPath id="bee5396593"><path d="M 953 190 L 959 190 L 959 192.660156 L 953 192.660156 Z M 953 190 " clip-rule="nonzero"/></clipPath><clipPath id="342bdc071f"><path d="M 944 190 L 949 190 L 949 192.660156 L 944 192.660156 Z M 944 190 " clip-rule="nonzero"/></clipPath><clipPath id="33dd7bf8d3"><path d="M 958 139 L 987.097656 139 L 987.097656 179 L 958 179 Z M 958 139 " clip-rule="nonzero"/></clipPath></defs><path fill="#000000" d="M 915.789062 140.226562 C 916.214844 140.226562 916.558594 140.574219 916.558594 141 L 916.558594 144.109375 C 916.558594 144.535156 916.214844 144.882812 915.789062 144.882812 C 915.355469 144.882812 915.007812 144.535156 915.007812 144.109375 L 915.007812 141 C 915.007812 140.574219 915.355469 140.226562 915.789062 140.226562 " fill-opacity="1" fill-rule="nonzero"/><path fill="#000000" d="M 880.160156 98.128906 C 881.199219 97.945312 882.246094 97.800781 883.289062 97.695312 C 883.710938 97.667969 884.09375 97.964844 884.136719 98.390625 C 884.175781 98.820312 883.867188 99.199219 883.441406 99.242188 C 882.4375 99.339844 881.433594 99.480469 880.429688 99.65625 C 880.386719 99.664062 880.34375 99.667969 880.296875 99.667969 C 879.925781 99.667969 879.597656 99.40625 879.535156 99.023438 C 879.460938 98.601562 879.738281 98.199219 880.160156 98.128906 " fill-opacity="1" fill-rule="nonzero"/><path fill="#000000" d="M 889.621094 97.601562 C 890.691406 97.683594 891.75 97.820312 892.769531 98.003906 C 893.191406 98.082031 893.46875 98.488281 893.394531 98.90625 C 893.324219 99.285156 893 99.546875 892.632812 99.546875 C 892.585938 99.546875 892.542969 99.542969 892.492188 99.53125 C 891.527344 99.359375 890.519531 99.230469 889.5 99.152344 C 889.074219 99.121094 888.753906 98.746094 888.785156 98.320312 C 888.816406 97.890625 889.242188 97.558594 889.621094 97.601562 " fill-opacity="1" fill-rule="nonzero"/><path fill="#000000" d="M 906.648438 105.390625 C 907.367188 106.144531 908.054688 106.964844 908.699219 107.835938 C 908.957031 108.175781 908.886719 108.664062 908.542969 108.921875 C 908.40625 109.023438 908.242188 109.078125 908.082031 109.078125 C 907.84375 109.078125 907.609375 108.96875 907.460938 108.761719 C 906.851562 107.945312 906.199219 107.167969 905.527344 106.460938 C 905.230469 106.148438 905.242188 105.65625 905.554688 105.359375 C 905.859375 105.066406 906.347656 105.078125 906.648438 105.390625 " fill-opacity="1" fill-rule="nonzero"/><path fill="#000000" d="M 915.4375 130.914062 C 915.804688 130.882812 916.234375 131.195312 916.269531 131.628906 C 916.351562 132.671875 916.414062 133.71875 916.457031 134.753906 C 916.476562 135.1875 916.144531 135.546875 915.714844 135.566406 C 915.703125 135.566406 915.695312 135.566406 915.683594 135.566406 C 915.269531 135.566406 914.925781 135.238281 914.90625 134.820312 C 914.863281 133.804688 914.804688 132.777344 914.722656 131.746094 C 914.6875 131.320312 915.007812 130.949219 915.4375 130.914062 " fill-opacity="1" fill-rule="nonzero"/><path fill="#000000" d="M 913.992188 121.707031 C 914.410156 121.621094 914.820312 121.882812 914.914062 122.296875 C 915.144531 123.316406 915.339844 124.351562 915.515625 125.390625 C 915.585938 125.8125 915.300781 126.214844 914.878906 126.285156 C 914.835938 126.292969 914.792969 126.292969 914.753906 126.292969 C 914.378906 126.292969 914.050781 126.027344 913.988281 125.648438 C 913.820312 124.632812 913.621094 123.632812 913.402344 122.636719 C 913.308594 122.21875 913.570312 121.804688 913.992188 121.707031 " fill-opacity="1" fill-rule="nonzero"/><path fill="#000000" d="M 910.90625 112.933594 C 911.292969 112.75 911.753906 112.917969 911.933594 113.308594 C 912.371094 114.246094 912.777344 115.230469 913.148438 116.238281 C 913.296875 116.644531 913.097656 117.085938 912.691406 117.234375 C 912.605469 117.269531 912.515625 117.28125 912.421875 117.28125 C 912.105469 117.28125 911.8125 117.089844 911.695312 116.777344 C 911.34375 115.816406 910.957031 114.878906 910.53125 113.96875 C 910.347656 113.578125 910.515625 113.113281 910.90625 112.933594 " fill-opacity="1" fill-rule="nonzero"/><path fill="#000000" d="M 898.863281 99.867188 C 899.839844 100.300781 900.792969 100.804688 901.695312 101.359375 C 902.0625 101.582031 902.171875 102.0625 901.949219 102.429688 C 901.804688 102.667969 901.550781 102.800781 901.289062 102.800781 C 901.148438 102.800781 901.011719 102.761719 900.882812 102.683594 C 900.039062 102.164062 899.144531 101.695312 898.234375 101.285156 C 897.839844 101.109375 897.667969 100.652344 897.839844 100.257812 C 898.015625 99.867188 898.476562 99.691406 898.863281 99.867188 " fill-opacity="1" fill-rule="nonzero"/><path fill="#000000" d="M 838.054688 117.8125 C 838.714844 117.539062 839.367188 117.257812 840.019531 116.964844 L 840.863281 116.582031 C 841.253906 116.402344 841.714844 116.570312 841.898438 116.957031 C 842.074219 117.347656 841.90625 117.8125 841.519531 117.992188 L 840.652344 118.386719 C 839.984375 118.683594 839.320312 118.972656 838.644531 119.246094 C 838.546875 119.285156 838.449219 119.308594 838.351562 119.308594 C 838.046875 119.308594 837.753906 119.125 837.632812 118.824219 C 837.472656 118.429688 837.660156 117.972656 838.054688 117.8125 " fill-opacity="1" fill-rule="nonzero"/><path fill="#000000" d="M 829.34375 120.753906 C 830.328125 120.488281 831.3125 120.203125 832.289062 119.898438 C 832.695312 119.769531 833.128906 120 833.257812 120.40625 C 833.386719 120.816406 833.160156 121.253906 832.75 121.382812 C 831.753906 121.695312 830.75 121.984375 829.742188 122.253906 C 829.675781 122.273438 829.605469 122.28125 829.542969 122.28125 C 829.199219 122.28125 828.886719 122.050781 828.792969 121.707031 C 828.683594 121.289062 828.929688 120.863281 829.34375 120.753906 " fill-opacity="1" fill-rule="nonzero"/><path fill="#000000" d="M 871.074219 100.671875 C 872.046875 100.292969 873.039062 99.949219 874.046875 99.632812 C 874.449219 99.503906 874.890625 99.730469 875.015625 100.140625 C 875.144531 100.546875 874.921875 100.980469 874.511719 101.113281 C 873.535156 101.417969 872.574219 101.753906 871.628906 102.117188 C 871.539062 102.152344 871.445312 102.171875 871.347656 102.171875 C 871.039062 102.171875 870.742188 101.980469 870.628906 101.671875 C 870.472656 101.269531 870.675781 100.824219 871.074219 100.671875 " fill-opacity="1" fill-rule="nonzero"/><path fill="#000000" d="M 820.320312 122.566406 C 821.339844 122.429688 822.351562 122.269531 823.355469 122.089844 C 823.765625 122.019531 824.179688 122.292969 824.253906 122.71875 C 824.332031 123.136719 824.050781 123.542969 823.628906 123.617188 C 822.601562 123.796875 821.570312 123.964844 820.535156 124.105469 C 820.5 124.109375 820.460938 124.113281 820.425781 124.113281 C 820.046875 124.113281 819.714844 123.832031 819.660156 123.441406 C 819.605469 123.019531 819.898438 122.628906 820.320312 122.566406 " fill-opacity="1" fill-rule="nonzero"/><path fill="#000000" d="M 862.550781 104.617188 C 863.476562 104.132812 864.398438 103.652344 865.335938 103.199219 C 865.714844 103.015625 866.183594 103.164062 866.375 103.550781 C 866.5625 103.941406 866.402344 104.40625 866.015625 104.59375 C 865.097656 105.046875 864.183594 105.511719 863.273438 105.992188 C 863.160156 106.050781 863.035156 106.082031 862.914062 106.082031 C 862.636719 106.082031 862.367188 105.933594 862.226562 105.667969 C 862.027344 105.285156 862.171875 104.816406 862.550781 104.617188 " fill-opacity="1" fill-rule="nonzero"/><path fill="#000000" d="M 846.359375 113.804688 C 847.261719 113.316406 848.160156 112.8125 849.058594 112.304688 C 849.433594 112.09375 849.90625 112.226562 850.113281 112.601562 C 850.328125 112.972656 850.191406 113.449219 849.820312 113.660156 C 848.914062 114.167969 848.007812 114.675781 847.09375 115.171875 C 846.976562 115.230469 846.851562 115.261719 846.726562 115.261719 C 846.449219 115.261719 846.183594 115.117188 846.042969 114.855469 C 845.839844 114.476562 845.980469 114.007812 846.359375 113.804688 " fill-opacity="1" fill-rule="nonzero"/><path fill="#000000" d="M 854.417969 109.199219 L 857.101562 107.644531 C 857.476562 107.429688 857.953125 107.554688 858.164062 107.929688 C 858.378906 108.304688 858.246094 108.777344 857.875 108.992188 L 855.199219 110.546875 C 855.074219 110.617188 854.941406 110.652344 854.808594 110.652344 C 854.542969 110.652344 854.28125 110.511719 854.136719 110.265625 C 853.925781 109.894531 854.050781 109.417969 854.417969 109.199219 " fill-opacity="1" fill-rule="nonzero"/><path fill="#000000" d="M 811.148438 123.253906 C 812.175781 123.242188 813.195312 123.207031 814.214844 123.152344 C 814.648438 123.136719 815.007812 123.457031 815.03125 123.882812 C 815.058594 124.3125 814.730469 124.675781 814.304688 124.703125 C 813.261719 124.757812 812.21875 124.792969 811.175781 124.808594 C 811.171875 124.808594 811.167969 124.808594 811.160156 124.808594 C 810.738281 124.808594 810.390625 124.46875 810.386719 124.042969 C 810.378906 123.613281 810.722656 123.261719 811.148438 123.253906 " fill-opacity="1" fill-rule="nonzero"/><path fill="#000000" d="M 786.03125 31.328125 C 785.980469 31.339844 785.925781 31.34375 785.875 31.34375 C 785.515625 31.34375 785.195312 31.089844 785.117188 30.722656 C 784.921875 29.761719 784.628906 28.8125 784.25 27.90625 C 784.085938 27.511719 784.273438 27.054688 784.667969 26.890625 C 785.0625 26.722656 785.519531 26.90625 785.679688 27.304688 C 786.097656 28.304688 786.421875 29.351562 786.636719 30.410156 C 786.71875 30.835938 786.449219 31.242188 786.03125 31.328125 " fill-opacity="1" fill-rule="nonzero"/><path fill="#000000" d="M 962.984375 188.539062 C 963.902344 188.121094 964.804688 187.65625 965.65625 187.148438 C 966.023438 186.929688 966.5 187.050781 966.71875 187.421875 C 966.9375 187.792969 966.816406 188.269531 966.445312 188.484375 C 965.546875 189.019531 964.59375 189.511719 963.621094 189.953125 C 963.519531 190 963.414062 190.023438 963.304688 190.023438 C 963.007812 190.023438 962.726562 189.855469 962.597656 189.566406 C 962.421875 189.175781 962.59375 188.71875 962.984375 188.539062 " fill-opacity="1" fill-rule="nonzero"/><path fill="#000000" d="M 785.289062 40.539062 C 785.207031 40.539062 785.128906 40.523438 785.050781 40.5 C 784.640625 40.367188 784.421875 39.929688 784.550781 39.519531 C 784.863281 38.566406 785.097656 37.59375 785.246094 36.628906 C 785.308594 36.203125 785.714844 35.914062 786.128906 35.980469 C 786.554688 36.042969 786.84375 36.441406 786.777344 36.867188 C 786.617188 37.910156 786.363281 38.964844 786.027344 40.003906 C 785.917969 40.328125 785.617188 40.539062 785.289062 40.539062 " fill-opacity="1" fill-rule="nonzero"/><path fill="#000000" d="M 781.5625 23.234375 C 781.363281 23.234375 781.160156 23.152344 781.007812 23 C 780.332031 22.292969 779.582031 21.628906 778.777344 21.019531 C 778.4375 20.761719 778.371094 20.273438 778.625 19.933594 C 778.886719 19.589844 779.371094 19.523438 779.710938 19.78125 C 780.582031 20.4375 781.394531 21.15625 782.121094 21.921875 C 782.421875 22.226562 782.410156 22.71875 782.101562 23.015625 C 781.953125 23.164062 781.757812 23.234375 781.5625 23.234375 " fill-opacity="1" fill-rule="nonzero"/><path fill="#000000" d="M 915.8125 149.546875 C 915.816406 149.546875 915.824219 149.546875 915.828125 149.546875 C 916.25 149.546875 916.597656 149.886719 916.601562 150.308594 C 916.621094 151.339844 916.652344 152.371094 916.695312 153.394531 C 916.714844 153.828125 916.378906 154.1875 915.953125 154.207031 C 915.941406 154.207031 915.933594 154.207031 915.921875 154.207031 C 915.507812 154.207031 915.164062 153.878906 915.144531 153.460938 C 915.101562 152.421875 915.074219 151.382812 915.050781 150.339844 C 915.042969 149.910156 915.382812 149.554688 915.8125 149.546875 " fill-opacity="1" fill-rule="nonzero"/><path fill="#000000" d="M 746.089844 24.390625 C 745.933594 24.554688 745.71875 24.644531 745.511719 24.644531 C 745.328125 24.644531 745.140625 24.578125 744.992188 24.445312 C 744.675781 24.15625 744.648438 23.664062 744.9375 23.34375 C 745.648438 22.558594 746.40625 21.800781 747.1875 21.101562 C 747.507812 20.8125 747.992188 20.839844 748.28125 21.15625 C 748.566406 21.480469 748.542969 21.972656 748.222656 22.257812 C 747.480469 22.921875 746.761719 23.640625 746.089844 24.390625 " fill-opacity="1" fill-rule="nonzero"/><g clip-path="url(#4efb8b19c2)"><path fill="#000000" d="M 764.746094 16.324219 C 763.734375 16.296875 762.726562 16.324219 761.730469 16.40625 C 761.710938 16.40625 761.6875 16.40625 761.664062 16.40625 C 761.265625 16.40625 760.925781 16.101562 760.894531 15.699219 C 760.859375 15.269531 761.175781 14.894531 761.601562 14.859375 C 762.660156 14.773438 763.71875 14.746094 764.789062 14.773438 C 765.214844 14.78125 765.554688 15.136719 765.539062 15.566406 C 765.527344 15.996094 765.1875 16.332031 764.746094 16.324219 " fill-opacity="1" fill-rule="nonzero"/></g><path fill="#000000" d="M 773.835938 18.171875 C 773.742188 18.171875 773.648438 18.152344 773.554688 18.113281 C 772.632812 17.75 771.671875 17.4375 770.695312 17.179688 C 770.28125 17.070312 770.035156 16.648438 770.144531 16.234375 C 770.25 15.816406 770.667969 15.554688 771.089844 15.679688 C 772.125 15.949219 773.144531 16.28125 774.121094 16.671875 C 774.519531 16.828125 774.71875 17.28125 774.558594 17.679688 C 774.441406 17.984375 774.148438 18.171875 773.835938 18.171875 " fill-opacity="1" fill-rule="nonzero"/><g clip-path="url(#bee5396593)"><path fill="#000000" d="M 954.277344 190.9375 C 955.285156 190.816406 956.289062 190.644531 957.257812 190.429688 C 957.671875 190.34375 958.089844 190.605469 958.179688 191.023438 C 958.273438 191.445312 958.007812 191.859375 957.59375 191.949219 C 956.574219 192.171875 955.519531 192.351562 954.460938 192.476562 C 954.429688 192.480469 954.398438 192.484375 954.367188 192.484375 C 953.980469 192.484375 953.648438 192.195312 953.601562 191.796875 C 953.546875 191.375 953.851562 190.988281 954.277344 190.9375 " fill-opacity="1" fill-rule="nonzero"/></g><path fill="#000000" d="M 918 168 C 918.410156 167.871094 918.839844 168.105469 918.96875 168.519531 C 919.265625 169.484375 919.605469 170.441406 919.980469 171.386719 C 920.140625 171.78125 919.945312 172.230469 919.546875 172.394531 C 919.453125 172.429688 919.351562 172.449219 919.257812 172.449219 C 918.953125 172.449219 918.660156 172.265625 918.542969 171.960938 C 918.148438 170.976562 917.796875 169.984375 917.488281 168.972656 C 917.359375 168.566406 917.59375 168.132812 918 168 " fill-opacity="1" fill-rule="nonzero"/><path fill="#000000" d="M 916.300781 158.851562 C 916.714844 158.808594 917.109375 159.109375 917.160156 159.535156 C 917.277344 160.550781 917.417969 161.566406 917.585938 162.574219 C 917.65625 162.996094 917.371094 163.394531 916.949219 163.464844 C 916.90625 163.472656 916.863281 163.476562 916.820312 163.476562 C 916.449219 163.476562 916.121094 163.207031 916.058594 162.828125 C 915.886719 161.800781 915.742188 160.761719 915.617188 159.71875 C 915.570312 159.285156 915.875 158.902344 916.300781 158.851562 " fill-opacity="1" fill-rule="nonzero"/><path fill="#000000" d="M 921.65625 176.542969 C 922.007812 176.316406 922.492188 176.410156 922.726562 176.769531 C 923.273438 177.613281 923.871094 178.433594 924.5 179.210938 C 924.769531 179.546875 924.722656 180.035156 924.386719 180.304688 C 924.242188 180.421875 924.074219 180.480469 923.898438 180.480469 C 923.675781 180.480469 923.453125 180.378906 923.300781 180.191406 C 922.632812 179.371094 922 178.507812 921.429688 177.617188 C 921.195312 177.253906 921.296875 176.777344 921.65625 176.542969 " fill-opacity="1" fill-rule="nonzero"/><g clip-path="url(#342bdc071f)"><path fill="#000000" d="M 945.21875 190.753906 C 946.21875 190.910156 947.230469 191.019531 948.230469 191.089844 C 948.65625 191.117188 948.980469 191.488281 948.953125 191.914062 C 948.929688 192.324219 948.585938 192.636719 948.179688 192.636719 C 948.164062 192.636719 948.144531 192.636719 948.128906 192.636719 C 947.085938 192.570312 946.027344 192.449219 944.980469 192.289062 C 944.558594 192.226562 944.265625 191.828125 944.335938 191.402344 C 944.394531 190.980469 944.785156 190.703125 945.21875 190.753906 " fill-opacity="1" fill-rule="nonzero"/></g><path fill="#000000" d="M 936.5 188.214844 C 937.433594 188.625 938.386719 188.996094 939.328125 189.3125 C 939.738281 189.453125 939.953125 189.894531 939.816406 190.296875 C 939.703125 190.625 939.40625 190.824219 939.082031 190.824219 C 939 190.824219 938.914062 190.8125 938.832031 190.78125 C 937.851562 190.449219 936.859375 190.066406 935.882812 189.640625 C 935.488281 189.46875 935.308594 189.011719 935.480469 188.621094 C 935.648438 188.226562 936.109375 188.046875 936.5 188.214844 " fill-opacity="1" fill-rule="nonzero"/><path fill="#000000" d="M 928.765625 183.492188 C 929.53125 184.121094 930.351562 184.730469 931.195312 185.300781 C 931.550781 185.539062 931.644531 186.023438 931.40625 186.378906 C 931.257812 186.601562 931.011719 186.722656 930.761719 186.722656 C 930.613281 186.722656 930.460938 186.679688 930.328125 186.585938 C 929.445312 185.992188 928.589844 185.351562 927.78125 184.691406 C 927.449219 184.417969 927.402344 183.929688 927.675781 183.601562 C 927.941406 183.265625 928.433594 183.21875 928.765625 183.492188 " fill-opacity="1" fill-rule="nonzero"/><path fill="#000000" d="M 738.054688 40.546875 C 737.972656 40.90625 737.652344 41.148438 737.296875 41.148438 C 737.246094 41.148438 737.183594 41.140625 737.125 41.128906 C 736.707031 41.03125 736.445312 40.617188 736.542969 40.195312 C 736.78125 39.164062 737.054688 38.144531 737.363281 37.140625 C 737.488281 36.730469 737.925781 36.496094 738.332031 36.628906 C 738.742188 36.753906 738.972656 37.1875 738.847656 37.597656 C 738.550781 38.570312 738.285156 39.546875 738.054688 40.546875 " fill-opacity="1" fill-rule="nonzero"/><path fill="#000000" d="M 728.003906 56.042969 L 731.089844 56.339844 C 731.515625 56.386719 731.824219 56.761719 731.785156 57.191406 C 731.746094 57.59375 731.40625 57.894531 731.011719 57.894531 C 730.988281 57.894531 730.960938 57.894531 730.9375 57.890625 L 727.851562 57.589844 C 727.425781 57.546875 727.117188 57.167969 727.15625 56.742188 C 727.199219 56.3125 727.59375 56.019531 728.003906 56.042969 " fill-opacity="1" fill-rule="nonzero"/><path fill="#000000" d="M 718.742188 55.140625 L 721.832031 55.441406 C 722.257812 55.484375 722.570312 55.863281 722.527344 56.289062 C 722.488281 56.691406 722.148438 56.992188 721.757812 56.992188 C 721.730469 56.992188 721.707031 56.988281 721.679688 56.988281 L 718.59375 56.6875 C 718.167969 56.644531 717.855469 56.269531 717.898438 55.839844 C 717.9375 55.414062 718.347656 55.128906 718.742188 55.140625 " fill-opacity="1" fill-rule="nonzero"/><path fill="#000000" d="M 700.230469 53.34375 L 703.316406 53.644531 C 703.742188 53.6875 704.054688 54.066406 704.015625 54.492188 C 703.972656 54.894531 703.636719 55.195312 703.242188 55.195312 C 703.214844 55.195312 703.191406 55.195312 703.164062 55.191406 L 700.082031 54.890625 C 699.65625 54.847656 699.339844 54.46875 699.378906 54.046875 C 699.425781 53.613281 699.824219 53.324219 700.230469 53.34375 " fill-opacity="1" fill-rule="nonzero"/><path fill="#000000" d="M 709.488281 54.242188 L 712.574219 54.542969 C 713 54.585938 713.308594 54.964844 713.269531 55.394531 C 713.230469 55.792969 712.890625 56.09375 712.496094 56.09375 C 712.472656 56.09375 712.445312 56.09375 712.421875 56.09375 L 709.339844 55.789062 C 708.910156 55.746094 708.601562 55.367188 708.640625 54.941406 C 708.683594 54.511719 709.074219 54.214844 709.488281 54.242188 " fill-opacity="1" fill-rule="nonzero"/><path fill="#000000" d="M 737.226562 64.273438 C 737.628906 64.191406 738.054688 64.453125 738.144531 64.867188 C 738.359375 65.871094 738.589844 66.867188 738.847656 67.859375 C 738.949219 68.277344 738.703125 68.703125 738.289062 68.804688 C 738.226562 68.824219 738.160156 68.832031 738.097656 68.832031 C 737.75 68.832031 737.433594 68.601562 737.34375 68.25 C 737.085938 67.238281 736.847656 66.21875 736.628906 65.195312 C 736.539062 64.773438 736.808594 64.359375 737.226562 64.273438 " fill-opacity="1" fill-rule="nonzero"/><path fill="#000000" d="M 736.359375 45.726562 C 736.785156 45.773438 737.097656 46.152344 737.054688 46.578125 C 736.949219 47.59375 736.871094 48.613281 736.820312 49.632812 C 736.808594 50.050781 736.464844 50.375 736.050781 50.375 C 736.039062 50.375 736.023438 50.375 736.015625 50.375 C 735.589844 50.351562 735.257812 49.992188 735.277344 49.5625 C 735.324219 48.507812 735.402344 47.460938 735.511719 46.417969 C 735.554688 45.988281 735.960938 45.679688 736.359375 45.726562 " fill-opacity="1" fill-rule="nonzero"/><path fill="#000000" d="M 736.054688 55.03125 C 736.535156 54.972656 736.847656 55.328125 736.871094 55.757812 C 736.898438 56.164062 736.929688 56.566406 736.960938 56.972656 C 737.054688 56.941406 737.152344 56.9375 737.257812 56.941406 L 740.339844 57.230469 C 740.769531 57.269531 741.082031 57.648438 741.042969 58.074219 C 741.003906 58.503906 740.601562 58.804688 740.203125 58.777344 L 737.109375 58.484375 C 737.109375 58.484375 737.105469 58.484375 737.105469 58.484375 C 737.121094 58.597656 737.132812 58.707031 737.144531 58.816406 C 737.195312 59.238281 736.890625 59.625 736.464844 59.675781 C 736.4375 59.679688 736.402344 59.679688 736.371094 59.679688 C 735.984375 59.679688 735.652344 59.386719 735.601562 58.992188 C 735.484375 57.953125 735.394531 56.90625 735.328125 55.855469 C 735.300781 55.429688 735.628906 55.058594 736.054688 55.03125 " fill-opacity="1" fill-rule="nonzero"/><path fill="#000000" d="M 663.199219 49.746094 L 666.289062 50.046875 C 666.714844 50.089844 667.023438 50.46875 666.984375 50.894531 C 666.945312 51.296875 666.605469 51.597656 666.210938 51.597656 C 666.1875 51.597656 666.160156 51.597656 666.136719 51.59375 L 663.050781 51.292969 C 662.625 51.25 662.3125 50.875 662.355469 50.449219 C 662.394531 50.019531 662.796875 49.742188 663.199219 49.746094 " fill-opacity="1" fill-rule="nonzero"/><path fill="#000000" d="M 653.941406 48.84375 L 657.027344 49.148438 C 657.453125 49.1875 657.765625 49.570312 657.722656 50 C 657.683594 50.398438 657.347656 50.695312 656.957031 50.695312 C 656.925781 50.695312 656.90625 50.695312 656.875 50.691406 L 653.792969 50.394531 C 653.367188 50.351562 653.054688 49.972656 653.097656 49.546875 C 653.136719 49.121094 653.550781 48.828125 653.941406 48.84375 " fill-opacity="1" fill-rule="nonzero"/><path fill="#000000" d="M 644.683594 47.949219 L 647.769531 48.25 C 648.195312 48.289062 648.507812 48.667969 648.46875 49.097656 C 648.425781 49.496094 648.089844 49.796875 647.695312 49.796875 C 647.671875 49.796875 647.644531 49.796875 647.617188 49.796875 L 644.535156 49.492188 C 644.109375 49.453125 643.796875 49.074219 643.835938 48.648438 C 643.878906 48.21875 644.277344 47.9375 644.683594 47.949219 " fill-opacity="1" fill-rule="nonzero"/><path fill="#000000" d="M 635.425781 47.042969 L 638.511719 47.347656 C 638.9375 47.386719 639.25 47.769531 639.210938 48.195312 C 639.167969 48.601562 638.835938 48.894531 638.441406 48.894531 C 638.410156 48.894531 638.390625 48.894531 638.359375 48.890625 L 635.28125 48.597656 C 634.855469 48.550781 634.539062 48.171875 634.578125 47.746094 C 634.621094 47.320312 635.023438 47.027344 635.425781 47.042969 " fill-opacity="1" fill-rule="nonzero"/><path fill="#000000" d="M 681.714844 51.542969 L 684.800781 51.847656 C 685.226562 51.886719 685.539062 52.265625 685.5 52.695312 C 685.460938 53.09375 685.125 53.394531 684.726562 53.394531 C 684.703125 53.394531 684.675781 53.394531 684.652344 53.394531 L 681.566406 53.089844 C 681.140625 53.046875 680.824219 52.671875 680.867188 52.246094 C 680.910156 51.8125 681.324219 51.519531 681.714844 51.542969 " fill-opacity="1" fill-rule="nonzero"/><path fill="#000000" d="M 690.972656 52.445312 L 694.058594 52.742188 C 694.484375 52.785156 694.792969 53.167969 694.753906 53.59375 C 694.714844 53.996094 694.378906 54.296875 693.980469 54.296875 C 693.957031 54.296875 693.933594 54.296875 693.90625 54.292969 L 690.824219 53.992188 C 690.398438 53.949219 690.085938 53.570312 690.125 53.144531 C 690.167969 52.714844 690.574219 52.4375 690.972656 52.445312 " fill-opacity="1" fill-rule="nonzero"/><path fill="#000000" d="M 739.644531 73.261719 C 740.046875 73.121094 740.488281 73.332031 740.628906 73.738281 C 740.96875 74.707031 741.328125 75.664062 741.707031 76.617188 C 741.863281 77.015625 741.671875 77.46875 741.273438 77.628906 C 741.179688 77.664062 741.082031 77.683594 740.984375 77.683594 C 740.679688 77.683594 740.386719 77.5 740.269531 77.195312 C 739.878906 76.222656 739.515625 75.242188 739.167969 74.25 C 739.023438 73.847656 739.238281 73.40625 739.644531 73.261719 " fill-opacity="1" fill-rule="nonzero"/><path fill="#000000" d="M 672.457031 50.644531 L 675.542969 50.945312 C 675.96875 50.988281 676.277344 51.367188 676.238281 51.796875 C 676.199219 52.199219 675.859375 52.496094 675.46875 52.496094 C 675.441406 52.496094 675.417969 52.492188 675.390625 52.492188 L 672.308594 52.195312 C 671.878906 52.152344 671.570312 51.769531 671.609375 51.34375 C 671.652344 50.917969 672.046875 50.632812 672.457031 50.644531 " fill-opacity="1" fill-rule="nonzero"/><path fill="#000000" d="M 784.082031 118.617188 C 785.042969 118.976562 786.007812 119.3125 786.980469 119.625 C 787.386719 119.757812 787.609375 120.195312 787.476562 120.605469 C 787.371094 120.933594 787.066406 121.140625 786.742188 121.140625 C 786.664062 121.140625 786.582031 121.128906 786.5 121.105469 C 785.507812 120.78125 784.519531 120.441406 783.542969 120.074219 C 783.140625 119.925781 782.933594 119.476562 783.085938 119.078125 C 783.234375 118.671875 783.683594 118.464844 784.082031 118.617188 " fill-opacity="1" fill-rule="nonzero"/><path fill="#000000" d="M 773.136719 53.035156 C 774 52.523438 774.84375 51.957031 775.648438 51.355469 C 775.992188 51.105469 776.476562 51.175781 776.734375 51.515625 C 776.992188 51.863281 776.917969 52.347656 776.578125 52.601562 C 775.730469 53.234375 774.835938 53.832031 773.929688 54.371094 C 773.808594 54.445312 773.671875 54.484375 773.535156 54.484375 C 773.269531 54.484375 773.011719 54.347656 772.871094 54.101562 C 772.652344 53.734375 772.769531 53.257812 773.136719 53.035156 " fill-opacity="1" fill-rule="nonzero"/><path fill="#000000" d="M 767.859375 110.03125 C 768.691406 110.625 769.539062 111.199219 770.398438 111.757812 C 770.761719 111.992188 770.859375 112.472656 770.625 112.832031 C 770.476562 113.0625 770.230469 113.1875 769.976562 113.1875 C 769.832031 113.1875 769.6875 113.144531 769.554688 113.0625 C 768.679688 112.492188 767.816406 111.90625 766.964844 111.300781 C 766.613281 111.050781 766.53125 110.566406 766.777344 110.21875 C 767.027344 109.867188 767.511719 109.785156 767.859375 110.03125 " fill-opacity="1" fill-rule="nonzero"/><path fill="#000000" d="M 775.6875 114.863281 C 776.589844 115.339844 777.507812 115.800781 778.429688 116.238281 C 778.816406 116.421875 778.984375 116.882812 778.800781 117.273438 C 778.664062 117.550781 778.386719 117.714844 778.097656 117.714844 C 777.988281 117.714844 777.875 117.691406 777.765625 117.644531 C 776.820312 117.191406 775.886719 116.726562 774.964844 116.238281 C 774.585938 116.035156 774.441406 115.570312 774.640625 115.183594 C 774.839844 114.804688 775.316406 114.664062 775.6875 114.863281 " fill-opacity="1" fill-rule="nonzero"/><path fill="#000000" d="M 764.746094 56.429688 C 765.726562 56.179688 766.695312 55.894531 767.660156 55.558594 C 768.0625 55.429688 768.503906 55.640625 768.644531 56.046875 C 768.78125 56.453125 768.566406 56.894531 768.15625 57.03125 C 767.15625 57.375 766.144531 57.675781 765.125 57.933594 C 765.0625 57.945312 764.996094 57.953125 764.9375 57.953125 C 764.589844 57.953125 764.273438 57.722656 764.183594 57.367188 C 764.078125 56.953125 764.328125 56.53125 764.746094 56.429688 " fill-opacity="1" fill-rule="nonzero"/><path fill="#000000" d="M 760.714844 104.234375 C 761.464844 104.929688 762.234375 105.609375 763.011719 106.269531 C 763.339844 106.546875 763.378906 107.039062 763.105469 107.363281 C 762.949219 107.542969 762.730469 107.640625 762.511719 107.640625 C 762.335938 107.640625 762.15625 107.578125 762.007812 107.453125 C 761.214844 106.777344 760.429688 106.085938 759.660156 105.378906 C 759.347656 105.085938 759.328125 104.59375 759.617188 104.28125 C 759.910156 103.96875 760.394531 103.945312 760.714844 104.234375 " fill-opacity="1" fill-rule="nonzero"/><path fill="#000000" d="M 792.886719 121.273438 C 793.882812 121.511719 794.886719 121.71875 795.890625 121.914062 C 796.3125 121.996094 796.585938 122.398438 796.507812 122.824219 C 796.433594 123.195312 796.109375 123.453125 795.746094 123.453125 C 795.699219 123.453125 795.648438 123.449219 795.597656 123.441406 C 794.570312 123.246094 793.550781 123.023438 792.535156 122.789062 C 792.117188 122.691406 791.859375 122.273438 791.957031 121.855469 C 792.054688 121.4375 792.46875 121.179688 792.886719 121.273438 " fill-opacity="1" fill-rule="nonzero"/><path fill="#000000" d="M 781.898438 44.871094 C 782.140625 44.515625 782.625 44.421875 782.976562 44.664062 C 783.332031 44.902344 783.425781 45.386719 783.1875 45.742188 C 782.59375 46.617188 781.9375 47.472656 781.238281 48.28125 C 781.082031 48.453125 780.871094 48.546875 780.652344 48.546875 C 780.472656 48.546875 780.292969 48.488281 780.144531 48.355469 C 779.820312 48.074219 779.789062 47.582031 780.070312 47.261719 C 780.730469 46.5 781.347656 45.695312 781.898438 44.871094 " fill-opacity="1" fill-rule="nonzero"/><path fill="#000000" d="M 801.957031 122.824219 C 802.976562 122.929688 803.992188 123.019531 805.019531 123.089844 C 805.445312 123.117188 805.765625 123.488281 805.742188 123.917969 C 805.710938 124.328125 805.371094 124.640625 804.964844 124.640625 C 804.949219 124.640625 804.933594 124.640625 804.910156 124.636719 C 803.871094 124.570312 802.832031 124.480469 801.796875 124.367188 C 801.371094 124.324219 801.058594 123.941406 801.105469 123.511719 C 801.152344 123.085938 801.558594 122.761719 801.957031 122.824219 " fill-opacity="1" fill-rule="nonzero"/><path fill="#000000" d="M 754.335938 97.59375 C 754.996094 98.371094 755.675781 99.140625 756.371094 99.898438 C 756.65625 100.210938 756.640625 100.703125 756.324219 100.992188 C 756.179688 101.128906 755.988281 101.199219 755.800781 101.199219 C 755.589844 101.199219 755.378906 101.117188 755.230469 100.949219 C 754.523438 100.179688 753.828125 99.398438 753.152344 98.597656 C 752.875 98.273438 752.914062 97.78125 753.242188 97.503906 C 753.566406 97.222656 754.054688 97.265625 754.335938 97.59375 " fill-opacity="1" fill-rule="nonzero"/><path fill="#000000" d="M 747.734375 89.996094 C 748.085938 89.761719 748.570312 89.859375 748.804688 90.21875 C 749.367188 91.078125 749.949219 91.917969 750.546875 92.746094 C 750.796875 93.09375 750.71875 93.582031 750.371094 93.832031 C 750.234375 93.933594 750.074219 93.980469 749.917969 93.980469 C 749.679688 93.980469 749.441406 93.867188 749.292969 93.660156 C 748.679688 92.808594 748.085938 91.945312 747.515625 91.074219 C 747.28125 90.714844 747.375 90.230469 747.734375 89.996094 " fill-opacity="1" fill-rule="nonzero"/><path fill="#000000" d="M 752.410156 17.425781 C 753.347656 16.945312 754.339844 16.523438 755.363281 16.167969 C 755.765625 16.03125 756.207031 16.242188 756.347656 16.644531 C 756.488281 17.054688 756.273438 17.496094 755.871094 17.636719 C 754.914062 17.96875 753.992188 18.363281 753.117188 18.8125 C 753.007812 18.867188 752.882812 18.894531 752.765625 18.894531 C 752.484375 18.894531 752.210938 18.742188 752.074219 18.472656 C 751.878906 18.089844 752.03125 17.621094 752.410156 17.425781 " fill-opacity="1" fill-rule="nonzero"/><path fill="#000000" d="M 746.496094 57.703125 C 747.523438 57.753906 748.550781 57.800781 749.574219 57.828125 C 750 57.839844 750.335938 58.195312 750.328125 58.625 C 750.316406 59.046875 749.972656 59.378906 749.554688 59.378906 C 749.546875 59.378906 749.539062 59.378906 749.53125 59.378906 C 748.496094 59.355469 747.453125 59.308594 746.414062 59.25 C 745.984375 59.222656 745.660156 58.863281 745.679688 58.433594 C 745.707031 58.003906 746.039062 57.675781 746.496094 57.703125 " fill-opacity="1" fill-rule="nonzero"/><path fill="#000000" d="M 743.171875 81.878906 C 743.554688 81.691406 744.015625 81.84375 744.210938 82.230469 C 744.667969 83.148438 745.144531 84.054688 745.632812 84.953125 C 745.84375 85.332031 745.707031 85.800781 745.332031 86.011719 C 745.210938 86.074219 745.085938 86.105469 744.957031 86.105469 C 744.683594 86.105469 744.417969 85.960938 744.277344 85.703125 C 743.777344 84.789062 743.289062 83.859375 742.824219 82.921875 C 742.636719 82.535156 742.789062 82.070312 743.171875 81.878906 " fill-opacity="1" fill-rule="nonzero"/><path fill="#000000" d="M 740.363281 32.367188 C 740.246094 32.367188 740.132812 32.339844 740.019531 32.289062 C 739.636719 32.101562 739.476562 31.632812 739.664062 31.25 C 740.128906 30.292969 740.636719 29.355469 741.171875 28.457031 C 741.394531 28.089844 741.875 27.964844 742.234375 28.191406 C 742.601562 28.410156 742.722656 28.886719 742.5 29.253906 C 741.984375 30.113281 741.503906 31.015625 741.054688 31.929688 C 740.925781 32.203125 740.648438 32.367188 740.363281 32.367188 " fill-opacity="1" fill-rule="nonzero"/><path fill="#000000" d="M 755.75 59.304688 C 755.339844 59.304688 754.996094 58.984375 754.976562 58.570312 C 754.949219 58.140625 755.28125 57.777344 755.707031 57.75 C 756.726562 57.695312 757.742188 57.609375 758.753906 57.5 C 759.179688 57.453125 759.5625 57.753906 759.609375 58.183594 C 759.65625 58.609375 759.351562 58.992188 758.925781 59.042969 C 757.882812 59.160156 756.84375 59.246094 755.792969 59.304688 C 755.777344 59.304688 755.761719 59.304688 755.75 59.304688 " fill-opacity="1" fill-rule="nonzero"/><path fill="#000000" d="M 972.777344 181 C 974.328125 181 975.582031 182.257812 975.582031 183.8125 C 975.582031 185.367188 974.328125 186.625 972.777344 186.625 C 971.226562 186.625 969.972656 185.367188 969.972656 183.8125 C 969.972656 182.257812 971.226562 181 972.777344 181 " fill-opacity="1" fill-rule="nonzero"/><g clip-path="url(#33dd7bf8d3)"><path fill="#000000" d="M 967.867188 158.300781 C 970.554688 161 974.929688 161 977.617188 158.300781 C 978.972656 156.953125 979.640625 155.1875 979.640625 153.410156 C 979.640625 151.636719 978.972656 149.875 977.617188 148.527344 C 974.929688 145.824219 970.554688 145.824219 967.867188 148.527344 C 965.167969 151.214844 965.167969 155.605469 967.867188 158.300781 Z M 978.828125 140.949219 C 982.921875 142.917969 985.917969 146.734375 986.753906 151.21875 C 986.949219 152.289062 987.042969 153.375 987.035156 154.460938 C 986.992188 158.558594 985.414062 162.675781 982.84375 165.847656 L 972.742188 178.265625 C 972.742188 178.265625 962.648438 165.851562 962.640625 165.847656 C 957.449219 159.457031 956.742188 149.589844 962.960938 143.609375 C 967.019531 139.714844 973.167969 138.238281 978.828125 140.949219 " fill-opacity="1" fill-rule="nonzero"/></g><path fill="#000000" d="M 583.984375 39.390625 C 584.839844 39.011719 585.730469 38.726562 586.644531 38.523438 C 588.464844 38.128906 590.355469 38.085938 592.1875 38.378906 C 592.304688 38.398438 595.507812 38.917969 599.816406 39.617188 L 602.527344 36.335938 C 601.871094 36.148438 601.878906 35.488281 601.960938 34.6875 C 602.054688 33.808594 602.195312 33.105469 603.070312 33.191406 L 604.960938 33.390625 L 607.046875 30.871094 C 606.410156 30.675781 606.417969 30.019531 606.5 29.230469 C 606.59375 28.351562 606.734375 27.640625 607.609375 27.734375 L 609.480469 27.925781 L 611.492188 25.492188 C 611.730469 25.199219 612.238281 24.964844 612.613281 24.972656 L 614.460938 25 C 614.839844 25.003906 615.070312 25.308594 614.964844 25.675781 L 610.609375 41.363281 C 614.800781 42.046875 618.710938 42.675781 621.109375 43.066406 L 625.382812 38.632812 C 625.585938 38.421875 625.867188 38.3125 626.152344 38.339844 L 628.914062 38.625 C 629.660156 38.707031 630.03125 39.621094 629.585938 40.269531 L 627.019531 45.632812 L 629.851562 46.359375 C 630.300781 46.40625 630.625 46.820312 630.574219 47.285156 C 630.523438 47.753906 630.125 48.097656 629.679688 48.050781 L 626.519531 48.1875 L 628.097656 54.636719 C 628.402344 55.367188 627.851562 56.1875 627.109375 56.105469 L 624.347656 55.820312 C 624.066406 55.792969 623.808594 55.628906 623.648438 55.375 L 619.929688 49.449219 C 617.425781 49.332031 613.613281 49.15625 609.574219 48.96875 L 610.910156 66.714844 C 610.941406 67.09375 610.660156 67.347656 610.289062 67.28125 L 608.902344 67.023438 C 608.53125 66.953125 608.082031 66.621094 607.90625 66.285156 L 605.9375 62.53125 L 604.035156 62.335938 C 603.15625 62.242188 603.160156 61.523438 603.253906 60.644531 C 603.335938 59.835938 603.472656 59.179688 604.167969 59.148438 L 602.65625 56.257812 L 600.472656 56.035156 C 599.59375 55.941406 599.722656 55.234375 599.8125 54.351562 C 599.90625 53.472656 599.925781 52.753906 600.800781 52.84375 L 600.871094 52.851562 L 598.570312 48.457031 C 594.292969 48.261719 591.175781 48.117188 591.175781 48.117188 C 589.261719 48.03125 587.375 47.542969 585.632812 46.730469 C 584.027344 45.980469 581.8125 44.800781 580.882812 43.226562 C 579.582031 41.039062 582.480469 40.042969 583.984375 39.390625 " fill-opacity="1" fill-rule="nonzero"/></svg>