<svg xmlns="http://www.w3.org/2000/svg" xmlns:xlink="http://www.w3.org/1999/xlink" width="500" zoomAndPan="magnify" viewBox="0 0 375 374.999991" height="500" preserveAspectRatio="xMidYMid meet" version="1.0"><defs><g/><clipPath id="5edae57e78"><path d="M 54.230469 52.144531 L 320.480469 52.144531 L 320.480469 318.394531 L 54.230469 318.394531 Z M 54.230469 52.144531 " clip-rule="nonzero"/></clipPath><clipPath id="6f8a0ba387"><path d="M 187.355469 52.144531 C 113.832031 52.144531 54.230469 111.746094 54.230469 185.269531 C 54.230469 258.792969 113.832031 318.394531 187.355469 318.394531 C 260.878906 318.394531 320.480469 258.792969 320.480469 185.269531 C 320.480469 111.746094 260.878906 52.144531 187.355469 52.144531 " clip-rule="nonzero"/></clipPath><clipPath id="6267f9be60"><path d="M 73.230469 97 L 215 97 L 215 201 L 73.230469 201 Z M 73.230469 97 " clip-rule="nonzero"/></clipPath><clipPath id="eddb06dccf"><path d="M 74 166 L 301.769531 166 L 301.769531 268.941406 L 74 268.941406 Z M 74 166 " clip-rule="nonzero"/></clipPath><clipPath id="54e937816e"><path d="M 27.25 269.464844 L 347.75 269.464844 L 347.75 337 L 27.25 337 Z M 27.25 269.464844 " clip-rule="nonzero"/></clipPath></defs><g clip-path="url(#5edae57e78)"><g clip-path="url(#6f8a0ba387)"><path stroke-linecap="butt" transform="matrix(1.141467, 0, 0, 1.141467, 54.232055, 52.145589)" fill="none" stroke-linejoin="miter" d="M 116.62484 -0.000926287 C 52.213488 -0.000926287 -0.00138925 52.213951 -0.00138925 116.625303 C -0.00138925 181.036655 52.213488 233.251532 116.62484 233.251532 C 181.036192 233.251532 233.251069 181.036655 233.251069 116.625303 C 233.251069 52.213951 181.036192 -0.000926287 116.62484 -0.000926287 " stroke="#04628f" stroke-width="5.25076" stroke-opacity="1" stroke-miterlimit="4"/></g></g><g clip-path="url(#6267f9be60)"><path fill="#0071a8" d="M 170.90625 193.933594 C 170.90625 193.933594 138.597656 178.046875 126.867188 170.039062 C 124.835938 168.65625 130.066406 166.378906 135.640625 165.59375 C 147.207031 164.757812 213.984375 173.375 213.984375 173.375 L 214.773438 173 C 204.925781 171.074219 195.257812 168.21875 185.964844 164.480469 C 175.019531 160.074219 164.535156 154.429688 154.8125 147.703125 C 135.769531 134.53125 119.550781 117.054688 107.859375 97.132812 C 90.640625 112.410156 77.796875 133.660156 73.230469 160.167969 C 73.230469 222.484375 170.90625 193.933594 170.90625 193.933594 Z M 170.90625 193.933594 " fill-opacity="1" fill-rule="nonzero"/></g><g clip-path="url(#eddb06dccf)"><path fill="#0071a8" d="M 271.878906 173.824219 L 270.5 174.050781 C 269.625 175.707031 267.890625 177.394531 264.675781 178.785156 C 264.675781 178.785156 208.351562 206.328125 177.730469 214.839844 C 126.675781 229.027344 93.316406 228.75 74.046875 197.082031 C 76.464844 218.238281 82.832031 236.339844 92.523438 251.101562 C 95.257812 249.691406 98.351562 248.882812 101.632812 248.855469 C 101.566406 248.394531 101.53125 247.925781 101.53125 247.445312 C 101.53125 242.035156 105.925781 237.652344 111.347656 237.652344 C 114.28125 237.652344 116.910156 238.933594 118.710938 240.96875 C 125.40625 234.9375 134.277344 231.269531 144.003906 231.269531 C 153.03125 231.269531 161.3125 234.429688 167.808594 239.691406 C 170.703125 238.082031 174.042969 237.160156 177.597656 237.160156 C 185.636719 237.160156 192.574219 241.863281 195.796875 248.660156 C 197.203125 247.886719 198.820312 247.441406 200.542969 247.441406 C 205.964844 247.441406 210.363281 251.828125 210.363281 257.234375 C 210.363281 258.644531 210.0625 259.988281 209.519531 261.199219 C 214.351562 262.375 218.820312 264.476562 222.722656 267.308594 C 223.550781 256.980469 232.210938 248.851562 242.777344 248.851562 C 243.378906 248.851562 243.972656 248.882812 244.558594 248.933594 C 246.25 245.984375 249.4375 243.992188 253.085938 243.992188 C 258.507812 243.992188 262.90625 248.378906 262.90625 253.785156 C 262.90625 256.101562 262.101562 258.226562 260.753906 259.902344 C 262.128906 262.617188 262.90625 265.679688 262.90625 268.929688 C 286.734375 248.039062 301.777344 217.417969 301.777344 183.289062 C 301.777344 177.480469 301.339844 171.808594 300.5 166.285156 C 291.234375 169.675781 281.609375 172.214844 271.878906 173.824219 Z M 271.878906 173.824219 " fill-opacity="1" fill-rule="nonzero"/></g><path fill="#de8f14" d="M 187.5 69.296875 C 160.648438 67.824219 132.855469 76.585938 111.195312 94.292969 C 134.191406 133.9375 174.3125 162.460938 221.46875 169.800781 L 244.003906 159.046875 C 247.078125 157.714844 252.277344 157.921875 257.285156 159.175781 L 250.105469 167.121094 L 261.351562 160.453125 C 265.582031 162.074219 269.140625 164.429688 270.335938 167.179688 C 270.335938 167.179688 270.914062 168.140625 271.167969 169.570312 C 281.046875 167.9375 290.605469 165.367188 299.757812 161.96875 C 289.683594 109.851562 243.183594 72.359375 187.5 69.296875 Z M 187.5 69.296875 " fill-opacity="1" fill-rule="nonzero"/><g clip-path="url(#54e937816e)"><path fill="#ffffff" d="M 27.25 269.464844 L 348.632812 269.464844 L 348.632812 336.417969 L 27.25 336.417969 Z M 27.25 269.464844 " fill-opacity="1" fill-rule="nonzero"/></g><g fill="#04628f" fill-opacity="1"><g transform="translate(44.620304, 314.992597)"><g><path d="M 18.25 -14.109375 L 7.453125 -14.109375 L 7.453125 0 L 3.4375 0 L 3.4375 -31.9375 L 20.0625 -31.9375 L 20.0625 -28.46875 L 7.453125 -28.46875 L 7.453125 -17.546875 L 18.25 -17.546875 Z M 18.25 -14.109375 "/></g></g></g><g fill="#04628f" fill-opacity="1"><g transform="translate(70.200403, 314.992597)"><g><path d="M 7.484375 -3.4375 L 20 -3.4375 L 20 0 L 3.4375 0 L 3.4375 -31.9375 L 7.484375 -31.9375 Z M 7.484375 -3.4375 "/></g></g></g><g fill="#04628f" fill-opacity="1"><g transform="translate(95.539249, 314.992597)"><g><path d="M 11.75 -15.90625 L 18.296875 -31.9375 L 22.828125 -31.9375 L 13.75 -11.90625 L 13.75 0 L 9.734375 0 L 9.734375 -11.90625 L 0.65625 -31.9375 L 5.21875 -31.9375 Z M 11.75 -15.90625 "/></g></g></g><g fill="#de8f14" fill-opacity="1"><g transform="translate(123.089049, 314.992597)"><g><path d="M 23.46875 -10.140625 C 23.289062 -6.710938 22.328125 -4.09375 20.578125 -2.28125 C 18.835938 -0.46875 16.375 0.4375 13.1875 0.4375 C 9.976562 0.4375 7.429688 -0.773438 5.546875 -3.203125 C 3.660156 -5.640625 2.71875 -8.941406 2.71875 -13.109375 L 2.71875 -18.90625 C 2.71875 -23.0625 3.6875 -26.34375 5.625 -28.75 C 7.5625 -31.164062 10.207031 -32.375 13.5625 -32.375 C 16.644531 -32.375 19.03125 -31.445312 20.71875 -29.59375 C 22.40625 -27.75 23.320312 -25.109375 23.46875 -21.671875 L 19.40625 -21.671875 C 19.238281 -24.273438 18.691406 -26.128906 17.765625 -27.234375 C 16.847656 -28.347656 15.445312 -28.90625 13.5625 -28.90625 C 11.375 -28.90625 9.695312 -28.050781 8.53125 -26.34375 C 7.363281 -24.644531 6.78125 -22.148438 6.78125 -18.859375 L 6.78125 -13 C 6.78125 -9.769531 7.320312 -7.289062 8.40625 -5.5625 C 9.5 -3.84375 11.085938 -2.984375 13.171875 -2.984375 C 15.265625 -2.984375 16.769531 -3.5 17.6875 -4.53125 C 18.613281 -5.570312 19.1875 -7.441406 19.40625 -10.140625 Z M 23.46875 -10.140625 "/></g></g></g><g fill="#de8f14" fill-opacity="1"><g transform="translate(152.551224, 314.992597)"><g><path d="M 24.21875 -13.15625 C 24.21875 -8.800781 23.285156 -5.445312 21.421875 -3.09375 C 19.566406 -0.738281 16.929688 0.4375 13.515625 0.4375 C 10.222656 0.4375 7.617188 -0.703125 5.703125 -2.984375 C 3.796875 -5.273438 2.804688 -8.515625 2.734375 -12.703125 L 2.734375 -18.703125 C 2.734375 -22.972656 3.675781 -26.316406 5.5625 -28.734375 C 7.457031 -31.160156 10.09375 -32.375 13.46875 -32.375 C 16.832031 -32.375 19.453125 -31.210938 21.328125 -28.890625 C 23.210938 -26.578125 24.175781 -23.269531 24.21875 -18.96875 Z M 20.203125 -18.75 C 20.203125 -22.132812 19.648438 -24.644531 18.546875 -26.28125 C 17.441406 -27.925781 15.75 -28.75 13.46875 -28.75 C 11.257812 -28.75 9.585938 -27.914062 8.453125 -26.25 C 7.316406 -24.582031 6.742188 -22.128906 6.734375 -18.890625 L 6.734375 -13.15625 C 6.734375 -9.894531 7.300781 -7.410156 8.4375 -5.703125 C 9.570312 -3.992188 11.265625 -3.140625 13.515625 -3.140625 C 15.765625 -3.140625 17.429688 -3.925781 18.515625 -5.5 C 19.597656 -7.082031 20.160156 -9.503906 20.203125 -12.765625 Z M 20.203125 -18.75 "/></g></g></g><g fill="#de8f14" fill-opacity="1"><g transform="translate(183.526742, 314.992597)"><g><path d="M 8.625 -31.9375 L 16.953125 -5.875 L 25.296875 -31.9375 L 30.46875 -31.9375 L 30.46875 0 L 26.453125 0 L 26.453125 -12.4375 L 26.828125 -24.890625 L 18.46875 0 L 15.390625 0 L 7.078125 -24.8125 L 7.453125 -12.4375 L 7.453125 0 L 3.4375 0 L 3.4375 -31.9375 Z M 8.625 -31.9375 "/></g></g></g><g fill="#de8f14" fill-opacity="1"><g transform="translate(221.454904, 314.992597)"><g><path d="M 7.453125 -12.5 L 7.453125 0 L 3.4375 0 L 3.4375 -31.9375 L 13.625 -31.9375 C 16.59375 -31.9375 18.921875 -31.046875 20.609375 -29.265625 C 22.304688 -27.492188 23.15625 -25.128906 23.15625 -22.171875 C 23.15625 -19.097656 22.347656 -16.734375 20.734375 -15.078125 C 19.117188 -13.421875 16.84375 -12.5625 13.90625 -12.5 Z M 7.453125 -15.953125 L 13.625 -15.953125 C 15.40625 -15.953125 16.769531 -16.484375 17.71875 -17.546875 C 18.675781 -18.617188 19.15625 -20.144531 19.15625 -22.125 C 19.15625 -24.039062 18.660156 -25.578125 17.671875 -26.734375 C 16.691406 -27.890625 15.347656 -28.46875 13.640625 -28.46875 L 7.453125 -28.46875 Z M 7.453125 -15.953125 "/></g></g></g><g fill="#de8f14" fill-opacity="1"><g transform="translate(250.346828, 314.992597)"><g><path d="M 18.34375 -8.328125 L 7.546875 -8.328125 L 5.0625 0 L 0.9375 0 L 11.234375 -31.9375 L 14.671875 -31.9375 L 24.984375 0 L 20.859375 0 Z M 8.59375 -11.796875 L 17.3125 -11.796875 L 12.9375 -26.328125 Z M 8.59375 -11.796875 "/></g></g></g><g fill="#de8f14" fill-opacity="1"><g transform="translate(280.225713, 314.992597)"><g><path d="M 13.09375 -12.921875 L 7.484375 -12.921875 L 7.484375 0 L 3.4375 0 L 3.4375 -31.9375 L 12.390625 -31.9375 C 15.523438 -31.9375 17.894531 -31.117188 19.5 -29.484375 C 21.101562 -27.859375 21.90625 -25.472656 21.90625 -22.328125 C 21.90625 -20.359375 21.46875 -18.632812 20.59375 -17.15625 C 19.726562 -15.6875 18.5 -14.582031 16.90625 -13.84375 L 23.09375 -0.265625 L 23.09375 0 L 18.78125 0 Z M 7.484375 -16.359375 L 12.34375 -16.359375 C 14.03125 -16.359375 15.375 -16.898438 16.375 -17.984375 C 17.375 -19.066406 17.875 -20.515625 17.875 -22.328125 C 17.875 -26.421875 16.019531 -28.46875 12.3125 -28.46875 L 7.484375 -28.46875 Z M 7.484375 -16.359375 "/></g></g></g><g fill="#de8f14" fill-opacity="1"><g transform="translate(308.064872, 314.992597)"><g><path d="M 18.75 -14.765625 L 7.453125 -14.765625 L 7.453125 -3.4375 L 20.625 -3.4375 L 20.625 0 L 3.4375 0 L 3.4375 -31.9375 L 20.40625 -31.9375 L 20.40625 -28.46875 L 7.453125 -28.46875 L 7.453125 -18.203125 L 18.75 -18.203125 Z M 18.75 -14.765625 "/></g></g></g></svg>